<svg xmlns="http://www.w3.org/2000/svg" viewBox="0 0 100 100">
  <defs>
    <linearGradient id="faviconGradient" x1="0%" y1="0%" x2="100%" y2="100%">
      <stop offset="0%" stop-color="#1DA1F2" stop-opacity="1" />
      <stop offset="100%" stop-color="#1DA1F2" stop-opacity="1" />
    </linearGradient>
  </defs>
  
  <!-- Modern Twitter Bird Icon -->
  <path 
    d="M72 32c-3.4 1.5-7 2.3-10.7 2.3 4-2.3 7-6 8.2-10.5-3.8 2.3-8 3.7-12.5 4-3.5-3.7-8.5-6-14-6-10.3 0-18.6 8.4-18.6 18.6 0 1.4 0.2 2.8 0.5 4.2-15.5-0.8-29.3-8.2-38.5-20-1.6 2.8-2.5 6-2.5 9.5 0 6.4 3.3 12 8.3 15.3-3 0-6-1-8.5-2.7v0.3c0 9 6.3 16.5 14.7 18.3-1.6 0.4-3.3 0.7-5 0.7-1.3 0-2.6-0.1-3.8-0.3 2.8 8.7 11 15 20 15.2-7.3 5.7-16.5 9.1-26.5 9.1-1.7 0-3.4-0.1-5.1-0.3 9.5 6.1 20.8 9.7 33 9.7 39.8 0 61.6-33 61.6-61.6v-5c4.3-3.1 8-7 11-11.5-4.1 1.8-8.5 3-13.2 3.5 4.6-2.8 8-7.3 9.8-12.7z" 
    fill="url(#faviconGradient)"
  />
</svg>