<svg xmlns="http://www.w3.org/2000/svg" viewBox="0 0 100 40">
  <defs>
    <linearGradient id="logoGradient" x1="0%" y1="0%" x2="100%" y2="100%">
      <stop offset="0%" style="stop-color:#3B82F6;stop-opacity:1" />
      <stop offset="50%" style="stop-color:#8B5CF6;stop-opacity:1" />
      <stop offset="100%" style="stop-color:#EC4899;stop-opacity:1" />
    </linearGradient>
  </defs>
  
  <!-- Twitter Bird Icon with modern design -->
  <path d="M28 12c-3.5 1.5-5.5 4.5-5.5 7.5 0 0.5 0.1 1 0.2 1.5-5.5-0.3-10.5-2.9-14-7-0.5 1-0.8 2-0.8 3 0 2 1 3.8 2.5 4.8-1 0-2-0.3-2.8-0.8 0 0.1 0 0.2 0 0.3 0 3 2 5.5 5 6-0.5 0.1-1 0.2-1.5 0.2-0.4 0-0.8 0-1.2-0.1 0.8 2.5 3 4.5 5.5 4.5-2 1.5-4.5 2.5-7 2.5-0.5 0-1 0-1.5-0.1 2.8 1.8 6 2.8 9.5 2.8 11.5 0 18-9.5 18-18v-1c1.2-1 2.3-2 3.2-3.2-1 0.5-2.2 0.8-3.2 0.8 1-0.8 2-1.8 2.8-3-0.8 0.5-1.8 0.8-2.8 0.8 1-0.8 1.8-2 2.5-3.2z" fill="url(#logoGradient)"/>
  
  <!-- Modern "AI" text with gradient -->
  <text x="40" y="25" font-family="Arial, sans-serif" font-weight="700" font-size="18" fill="url(#logoGradient)">AI</text>
  
  <!-- "Pro" badge with modern styling -->
  <rect x="70" y="8" width="22" height="12" rx="6" fill="url(#logoGradient)" opacity="0.9"/>
  <text x="81" y="17" font-family="Arial, sans-serif" font-weight="600" font-size="8" fill="white" text-anchor="middle">PRO</text>
  
  <!-- Subtle glow effect -->
  <filter id="glow" x="-50%" y="-50%" width="200%" height="200%">
    <feGaussianBlur in="SourceAlpha" stdDeviation="2" result="blur"/>
    <feFlood flood-color="#3B82F6" flood-opacity="0.3" result="glowColor"/>
    <feComposite in="glowColor" in2="blur" operator="in" result="glow"/>
    <feMerge>
      <feMergeNode in="glow"/>
      <feMergeNode in="SourceGraphic"/>
    </feMerge>
  </filter>
  
  <g filter="url(#glow)">
    <path d="M28 12c-3.5 1.5-5.5 4.5-5.5 7.5 0 0.5 0.1 1 0.2 1.5-5.5-0.3-10.5-2.9-14-7-0.5 1-0.8 2-0.8 3 0 2 1 3.8 2.5 4.8-1 0-2-0.3-2.8-0.8 0 0.1 0 0.2 0 0.3 0 3 2 5.5 5 6-0.5 0.1-1 0.2-1.5 0.2-0.4 0-0.8 0-1.2-0.1 0.8 2.5 3 4.5 5.5 4.5-2 1.5-4.5 2.5-7 2.5-0.5 0-1 0-1.5-0.1 2.8 1.8 6 2.8 9.5 2.8 11.5 0 18-9.5 18-18v-1c1.2-1 2.3-2 3.2-3.2-1 0.5-2.2 0.8-3.2 0.8 1-0.8 2-1.8 2.8-3-0.8 0.5-1.8 0.8-2.8 0.8 1-0.8 1.8-2 2.5-3.2z" fill="url(#logoGradient)"/>
  </g>
</svg>